<svg viewBox="0 0 1440 400" fill="none" xmlns="http://www.w3.org/2000/svg">
<path d="M0 0H1440V354.698C1440 354.698 1254.96 331.404 1132.31 333.09C806.407 337.571 646.657 417.253 298.022 396.583C163.956 388.635 0 354.698 0 354.698V0Z" fill="#1F2E35"/>
<g filter="url(#filter0_d_323_5)">
<g filter="url(#filter1_d_323_5)">
<path d="M53 213.402C66.2548 213.402 77 202.942 77 190.038C77 177.134 66.2548 166.674 53 166.674C39.7452 166.674 29 177.134 29 190.038C29 202.942 39.7452 213.402 53 213.402Z" fill="black"/>
</g>
<path d="M53 213.402C66.2548 213.402 77 202.942 77 190.038C77 177.134 66.2548 166.674 53 166.674C39.7452 166.674 29 177.134 29 190.038C29 202.942 39.7452 213.402 53 213.402Z" fill="#0070F4"/>
<g filter="url(#filter2_d_323_5)">
<path d="M248 282.519C254.627 282.519 260 277.289 260 270.837C260 264.385 254.627 259.155 248 259.155C241.373 259.155 236 264.385 236 270.837C236 277.289 241.373 282.519 248 282.519Z" fill="black"/>
</g>
<path d="M248 282.519C254.627 282.519 260 277.289 260 270.837C260 264.385 254.627 259.155 248 259.155C241.373 259.155 236 264.385 236 270.837C236 277.289 241.373 282.519 248 282.519Z" fill="#0070F4"/>
<path d="M295 164.727C299.418 164.727 303 161.24 303 156.939C303 152.638 299.418 149.151 295 149.151C290.582 149.151 287 152.638 287 156.939C287 161.24 290.582 164.727 295 164.727Z" fill="#0070F4" fill-opacity="0.32"/>
<path d="M252 207.56C255.314 207.56 258 204.945 258 201.719C258 198.493 255.314 195.878 252 195.878C248.686 195.878 246 198.493 246 201.719C246 204.945 248.686 207.56 252 207.56Z" fill="#0070F4" fill-opacity="0.64"/>
<path d="M15 250.394C16.1046 250.394 17 249.522 17 248.447C17 247.372 16.1046 246.5 15 246.5C13.8954 246.5 13 247.372 13 248.447C13 249.522 13.8954 250.394 15 250.394Z" fill="#0070F4" fill-opacity="0.64"/>
<path d="M31 130.655C32.1046 130.655 33 129.783 33 128.708C33 127.633 32.1046 126.761 31 126.761C29.8954 126.761 29 127.633 29 128.708C29 129.783 29.8954 130.655 31 130.655Z" fill="#0070F4"/>
<g opacity="0.16" filter="url(#filter3_f_323_5)">
<path d="M260 270.836L347 241.632" stroke="#666666" stroke-width="2"/>
</g>
<path d="M138 118C204.667 122.543 242.667 150.45 252 201.72M260 265.969C371.333 225.732 401 190.687 349 160.833L260 265.969Z" stroke="url(#paint0_linear_323_5)" stroke-width="2" stroke-dasharray="2 2"/>
<g filter="url(#filter4_d_323_5)">
<path d="M1285.74 79.1574C1276.36 88.53 1276.16 103.525 1285.29 112.649C1294.41 121.773 1309.4 121.572 1318.78 112.199C1328.15 102.826 1328.35 87.8319 1319.23 78.7077C1310.1 69.5835 1295.11 69.7848 1285.74 79.1574Z" fill="black"/>
</g>
<path d="M1285.74 79.1574C1276.36 88.53 1276.16 103.525 1285.29 112.649C1294.41 121.773 1309.4 121.572 1318.78 112.199C1328.15 102.826 1328.35 87.8319 1319.23 78.7077C1310.1 69.5835 1295.11 69.7848 1285.74 79.1574Z" fill="#0070F4"/>
<g filter="url(#filter5_d_323_5)">
<path d="M1098.98 168.17C1094.29 172.856 1094.19 180.354 1098.75 184.916C1103.31 189.478 1110.81 189.377 1115.5 184.691C1120.18 180.005 1120.29 172.507 1115.72 167.945C1111.16 163.383 1103.66 163.484 1098.98 168.17Z" fill="black"/>
</g>
<path d="M1098.98 168.17C1094.29 172.856 1094.19 180.354 1098.75 184.916C1103.31 189.478 1110.81 189.377 1115.5 184.691C1120.18 180.005 1120.29 172.507 1115.72 167.945C1111.16 163.383 1103.66 163.484 1098.98 168.17Z" fill="#0070F4"/>
<path d="M1149.03 284.696C1145.91 287.82 1145.84 292.818 1148.88 295.859C1151.93 298.901 1156.92 298.834 1160.05 295.71C1163.17 292.585 1163.24 287.587 1160.2 284.546C1157.16 281.504 1152.16 281.571 1149.03 284.696Z" fill="#0070F4" fill-opacity="0.32"/>
<path d="M1149.15 224.002C1146.81 226.346 1146.76 230.094 1149.04 232.375C1151.32 234.656 1155.07 234.606 1157.41 232.263C1159.76 229.92 1159.81 226.171 1157.53 223.89C1155.24 221.609 1151.5 221.659 1149.15 224.002Z" fill="#0070F4" fill-opacity="0.64"/>
<path d="M1286.45 26.13C1285.67 26.911 1285.65 28.1606 1286.41 28.9209C1287.17 29.6813 1288.42 29.6645 1289.2 28.8835C1289.98 28.1024 1290 26.8528 1289.24 26.0925C1288.48 25.3321 1287.23 25.3489 1286.45 26.13Z" fill="#0070F4" fill-opacity="0.64"/>
<path d="M1359.8 122.112C1359.02 122.893 1359.01 124.143 1359.77 124.903C1360.53 125.663 1361.78 125.646 1362.56 124.865C1363.34 124.084 1363.35 122.835 1362.59 122.074C1361.83 121.314 1360.58 121.331 1359.8 122.112Z" fill="#0070F4"/>
<g opacity="0.16" filter="url(#filter6_f_323_5)">
<path d="M1098.75 184.917L1057.89 267.085" stroke="#666666" stroke-width="2"/>
</g>
<path d="M1293.09 206.721C1242.74 250.649 1196.13 257.786 1153.28 228.132M1102.19 188.358C1051.92 295.534 1055.72 341.293 1113.6 325.633L1102.19 188.358Z" stroke="url(#paint1_linear_323_5)" stroke-width="2" stroke-dasharray="2 2"/>
</g>
<defs>
<filter id="filter0_d_323_5" x="9" y="25.533" width="1358.15" height="312.094" filterUnits="userSpaceOnUse" color-interpolation-filters="sRGB">
<feFlood flood-opacity="0" result="BackgroundImageFix"/>
<feColorMatrix in="SourceAlpha" type="matrix" values="0 0 0 0 0 0 0 0 0 0 0 0 0 0 0 0 0 0 127 0" result="hardAlpha"/>
<feOffset dy="4"/>
<feGaussianBlur stdDeviation="2"/>
<feColorMatrix type="matrix" values="0 0 0 0 0 0 0 0 0 0 0 0 0 0 0 0 0 0 0.25 0"/>
<feBlend mode="normal" in2="BackgroundImageFix" result="effect1_dropShadow_323_5"/>
<feBlend mode="normal" in="SourceGraphic" in2="effect1_dropShadow_323_5" result="shape"/>
</filter>
<filter id="filter1_d_323_5" x="17" y="158.674" width="72" height="70.728" filterUnits="userSpaceOnUse" color-interpolation-filters="sRGB">
<feFlood flood-opacity="0" result="BackgroundImageFix"/>
<feColorMatrix in="SourceAlpha" type="matrix" values="0 0 0 0 0 0 0 0 0 0 0 0 0 0 0 0 0 0 127 0" result="hardAlpha"/>
<feOffset dy="4"/>
<feGaussianBlur stdDeviation="6"/>
<feColorMatrix type="matrix" values="0 0 0 0 0 0 0 0 0 0.439216 0 0 0 0 0.956863 0 0 0 0.32 0"/>
<feBlend mode="normal" in2="BackgroundImageFix" result="effect1_dropShadow_323_5"/>
<feBlend mode="normal" in="SourceGraphic" in2="effect1_dropShadow_323_5" result="shape"/>
</filter>
<filter id="filter2_d_323_5" x="224" y="251.155" width="48" height="47.364" filterUnits="userSpaceOnUse" color-interpolation-filters="sRGB">
<feFlood flood-opacity="0" result="BackgroundImageFix"/>
<feColorMatrix in="SourceAlpha" type="matrix" values="0 0 0 0 0 0 0 0 0 0 0 0 0 0 0 0 0 0 127 0" result="hardAlpha"/>
<feOffset dy="4"/>
<feGaussianBlur stdDeviation="6"/>
<feColorMatrix type="matrix" values="0 0 0 0 0 0 0 0 0 0.439216 0 0 0 0 0.956863 0 0 0 0.32 0"/>
<feBlend mode="normal" in2="BackgroundImageFix" result="effect1_dropShadow_323_5"/>
<feBlend mode="normal" in="SourceGraphic" in2="effect1_dropShadow_323_5" result="shape"/>
</filter>
<filter id="filter3_f_323_5" x="257.682" y="238.684" width="91.6367" height="35.1001" filterUnits="userSpaceOnUse" color-interpolation-filters="sRGB">
<feFlood flood-opacity="0" result="BackgroundImageFix"/>
<feBlend mode="normal" in="SourceGraphic" in2="BackgroundImageFix" result="shape"/>
<feGaussianBlur stdDeviation="1" result="effect1_foregroundBlur_323_5"/>
</filter>
<filter id="filter4_d_323_5" x="1266.57" y="63.9941" width="71.3682" height="71.3682" filterUnits="userSpaceOnUse" color-interpolation-filters="sRGB">
<feFlood flood-opacity="0" result="BackgroundImageFix"/>
<feColorMatrix in="SourceAlpha" type="matrix" values="0 0 0 0 0 0 0 0 0 0 0 0 0 0 0 0 0 0 127 0" result="hardAlpha"/>
<feOffset dy="4"/>
<feGaussianBlur stdDeviation="6"/>
<feColorMatrix type="matrix" values="0 0 0 0 0 0 0 0 0 0.439216 0 0 0 0 0.956863 0 0 0 0.32 0"/>
<feBlend mode="normal" in2="BackgroundImageFix" result="effect1_dropShadow_323_5"/>
<feBlend mode="normal" in="SourceGraphic" in2="effect1_dropShadow_323_5" result="shape"/>
</filter>
<filter id="filter5_d_323_5" x="1083.4" y="156.588" width="47.6846" height="47.6841" filterUnits="userSpaceOnUse" color-interpolation-filters="sRGB">
<feFlood flood-opacity="0" result="BackgroundImageFix"/>
<feColorMatrix in="SourceAlpha" type="matrix" values="0 0 0 0 0 0 0 0 0 0 0 0 0 0 0 0 0 0 127 0" result="hardAlpha"/>
<feOffset dy="4"/>
<feGaussianBlur stdDeviation="6"/>
<feColorMatrix type="matrix" values="0 0 0 0 0 0 0 0 0 0.439216 0 0 0 0 0.956863 0 0 0 0.32 0"/>
<feBlend mode="normal" in2="BackgroundImageFix" result="effect1_dropShadow_323_5"/>
<feBlend mode="normal" in="SourceGraphic" in2="effect1_dropShadow_323_5" result="shape"/>
</filter>
<filter id="filter6_f_323_5" x="1054.99" y="182.471" width="46.6592" height="87.0593" filterUnits="userSpaceOnUse" color-interpolation-filters="sRGB">
<feFlood flood-opacity="0" result="BackgroundImageFix"/>
<feBlend mode="normal" in="SourceGraphic" in2="BackgroundImageFix" result="shape"/>
<feGaussianBlur stdDeviation="1" result="effect1_foregroundBlur_323_5"/>
</filter>
<linearGradient id="paint0_linear_323_5" x1="255.916" y1="118" x2="255.916" y2="265.969" gradientUnits="userSpaceOnUse">
<stop stop-color="#0070F4" stop-opacity="0"/>
<stop offset="0.52449" stop-color="#0070F4" stop-opacity="0.64"/>
<stop offset="1" stop-color="#0070F4" stop-opacity="0"/>
</linearGradient>
<linearGradient id="paint1_linear_323_5" x1="1209.71" y1="290.1" x2="1105.08" y2="185.47" gradientUnits="userSpaceOnUse">
<stop stop-color="#0070F4" stop-opacity="0"/>
<stop offset="0.52449" stop-color="#0070F4" stop-opacity="0.64"/>
<stop offset="1" stop-color="#0070F4" stop-opacity="0"/>
</linearGradient>
</defs>
</svg>
