<svg width="112" height="112" viewBox="0 0 112 112" fill="none" xmlns="http://www.w3.org/2000/svg">
<g clip-path="url(#clip0_24_23)">
<rect width="112" height="112" rx="56" fill="#303030"/>
<path d="M56.0005 -1C25.0763 -1 0 24.7062 0 56.4178C0 81.7864 16.0458 103.309 38.2965 110.901C41.0953 111.433 42.1228 109.656 42.1228 108.139C42.1228 106.77 42.0708 102.247 42.0467 97.4492C26.4673 100.923 23.1799 90.6747 23.1799 90.6747C20.6325 84.038 16.9621 82.2733 16.9621 82.2733C11.8811 78.7096 17.345 78.7828 17.345 78.7828C22.9685 79.1879 25.9295 84.6997 25.9295 84.6997C30.9241 93.4777 39.0301 90.9399 42.2257 89.4728C42.7283 85.7618 44.1796 83.2288 45.7811 81.795C33.3427 80.3431 20.2671 75.4198 20.2671 53.4189C20.2671 47.1502 22.4547 42.0281 26.037 38.0072C25.4556 36.561 23.5388 30.7211 26.5795 22.8122C26.5795 22.8122 31.2821 21.269 41.9837 28.6977C46.4507 27.4255 51.2413 26.7875 56.0005 26.7657C60.7596 26.7875 65.554 27.4255 70.0293 28.6977C80.7179 21.269 85.414 22.8122 85.414 22.8122C88.4621 30.7211 86.5444 36.561 85.963 38.0072C89.5536 42.0281 91.7264 47.1502 91.7264 53.4189C91.7264 75.4721 78.6258 80.3279 66.1558 81.7494C68.1644 83.5312 69.9542 87.0254 69.9542 92.3823C69.9542 100.065 69.8893 106.248 69.8893 108.139C69.8893 109.667 70.8973 111.458 73.7359 110.894C95.9746 103.293 112 81.7779 112 56.4178C112 24.7062 86.9274 -1 56.0005 -1Z" fill="white"/>
<path d="M21.3754 81.0453C21.2523 81.3277 20.8154 81.4125 20.4174 81.2185C20.012 81.0331 19.7843 80.648 19.9157 80.3647C20.036 80.0737 20.4738 79.9928 20.8783 80.1877C21.2847 80.3731 21.5161 80.7619 21.3754 81.0453" fill="#161514"/>
<path d="M23.6395 83.6137C23.3729 83.8651 22.8518 83.7484 22.4982 83.3511C22.1326 82.9547 22.0641 82.4247 22.3344 82.1696C22.6093 81.9182 23.1147 82.0359 23.4812 82.4322C23.8469 82.8333 23.9181 83.3596 23.6395 83.6137" fill="#161514"/>
<path d="M25.8435 86.888C25.501 87.1299 24.941 86.9031 24.5948 86.3975C24.2523 85.892 24.2523 85.2857 24.6022 85.0428C24.9493 84.7999 25.501 85.0183 25.8518 85.5201C26.1934 86.0341 26.1934 86.6404 25.8435 86.888" fill="#161514"/>
<path d="M28.8621 90.0512C28.5557 90.3948 27.9032 90.3025 27.4256 89.8337C26.9368 89.3752 26.8008 88.7247 27.1081 88.3811C27.4182 88.0365 28.0744 88.1335 28.5557 88.5985C29.0408 89.0561 29.1889 89.7113 28.8621 90.0512" fill="#161514"/>
<path d="M33.0276 91.888C32.8924 92.3333 32.264 92.5357 31.6308 92.3464C30.9986 92.1516 30.5849 91.63 30.7126 91.18C30.8441 90.7319 31.4753 90.521 32.1131 90.7234C32.7443 90.9173 33.159 91.4351 33.0276 91.888" fill="#161514"/>
<path d="M37.6027 92.2287C37.6184 92.6975 37.0815 93.0863 36.4169 93.0948C35.7486 93.1098 35.2081 92.7305 35.2007 92.2691C35.2007 91.7956 35.7255 91.4106 36.3938 91.3993C37.0584 91.3861 37.6027 91.7627 37.6027 92.2287" fill="#161514"/>
<path d="M41.8593 91.4916C41.9389 91.9491 41.477 92.4189 40.817 92.5441C40.1682 92.6646 39.5674 92.3822 39.4851 91.9284C39.4045 91.4596 39.8747 90.9898 40.5227 90.8684C41.1836 90.7516 41.775 91.0265 41.8593 91.4916" fill="#161514"/>
</g>
<defs>
<clipPath id="clip0_24_23">
<rect width="112" height="112" rx="56" fill="white"/>
</clipPath>
</defs>
</svg>
