<svg width="20" height="19" viewBox="0 0 20 19" fill="none" xmlns="http://www.w3.org/2000/svg">
<path d="M19.1306 6.58663C19.0729 6.41682 18.9668 6.26761 18.8253 6.15742C18.6838 6.04723 18.5132 5.98089 18.3344 5.96658L13.1053 5.55107L10.8424 0.542056C10.7704 0.380725 10.6532 0.243699 10.5049 0.147514C10.3567 0.0513295 10.1838 9.71158e-05 10.0071 1.37932e-07C9.83044 -9.684e-05 9.6575 0.0509458 9.50917 0.146968C9.36084 0.24299 9.24348 0.379887 9.17124 0.541138L6.90842 5.55107L1.67927 5.96658C1.50358 5.9805 1.33562 6.04474 1.19548 6.15161C1.05534 6.25849 0.948961 6.40348 0.889066 6.56923C0.829171 6.73498 0.818296 6.91448 0.857744 7.08625C0.897192 7.25802 0.985291 7.41479 1.1115 7.5378L4.97581 11.3049L3.60913 17.2229C3.56763 17.402 3.58093 17.5895 3.6473 17.761C3.71368 17.9324 3.83006 18.08 3.98135 18.1845C4.13263 18.2891 4.31184 18.3457 4.49571 18.3471C4.67959 18.3485 4.85964 18.2946 5.0125 18.1924L10.0068 14.8628L15.0012 18.1924C15.1574 18.2961 15.3417 18.3495 15.5292 18.3454C15.7167 18.3413 15.8984 18.2799 16.0499 18.1694C16.2015 18.0589 16.3156 17.9047 16.3768 17.7274C16.4381 17.5502 16.4436 17.3584 16.3926 17.1779L14.715 11.3076L18.8756 7.56348C19.148 7.31766 19.248 6.93426 19.1306 6.58663Z" fill="#FFC942"/>
</svg>
