<svg width="20" height="19" viewBox="0 0 20 19" fill="none" xmlns="http://www.w3.org/2000/svg">
<path d="M5.03239 11.305L3.66571 17.223C3.62339 17.4022 3.6361 17.59 3.70217 17.7619C3.76824 17.9338 3.8846 18.0817 4.03606 18.1864C4.18752 18.2911 4.36704 18.3477 4.55117 18.3488C4.73529 18.3499 4.91547 18.2954 5.06816 18.1925L10.0625 14.863L15.0568 18.1925C15.2131 18.2963 15.3973 18.3497 15.5848 18.3456C15.7723 18.3415 15.9541 18.28 16.1056 18.1695C16.2571 18.0591 16.3712 17.9048 16.4325 17.7276C16.4937 17.5503 16.4993 17.3586 16.4483 17.1781L14.7707 11.3078L18.9312 7.56363C19.0645 7.44365 19.1597 7.28724 19.205 7.11374C19.2503 6.94025 19.2437 6.75728 19.1861 6.58746C19.1286 6.41764 19.0225 6.26843 18.881 6.15827C18.7395 6.04811 18.5688 5.98184 18.3901 5.96765L13.1609 5.55122L10.8981 0.542207C10.826 0.380916 10.7087 0.243955 10.5604 0.147851C10.4121 0.051748 10.2392 0.000610352 10.0625 0.000610352C9.88581 0.000610352 9.71289 0.051748 9.56462 0.147851C9.41635 0.243955 9.29906 0.380916 9.2269 0.542207L6.96409 5.55122L1.73493 5.96673C1.55924 5.98065 1.39128 6.04489 1.25114 6.15176C1.11101 6.25864 1.00463 6.40363 0.94473 6.56938C0.884835 6.73513 0.87396 6.91463 0.913408 7.0864C0.952856 7.25817 1.04095 7.41494 1.16717 7.53795L5.03239 11.305ZM7.64926 7.33708C7.81298 7.32418 7.97022 7.26747 8.10449 7.17291C8.23875 7.07834 8.34511 6.94939 8.4124 6.79958L10.0625 3.14807L11.7126 6.79958C11.7799 6.94939 11.8863 7.07834 12.0205 7.17291C12.1548 7.26747 12.312 7.32418 12.4757 7.33708L16.119 7.62601L13.1187 10.3263C12.8582 10.5612 12.7546 10.9225 12.85 11.2601L13.9993 15.2822L10.5725 12.9973C10.4221 12.8964 10.245 12.8425 10.0639 12.8425C9.88273 12.8425 9.70568 12.8964 9.55527 12.9973L5.97439 15.3849L6.93749 11.2151C6.9728 11.0618 6.96806 10.9019 6.92372 10.7509C6.87939 10.5999 6.79695 10.4629 6.68433 10.3529L3.89777 7.6361L7.64926 7.33708Z" fill="#FFC942"/>
</svg>
